<svg xmlns="http://www.w3.org/2000/svg" xmlns:xlink="http://www.w3.org/1999/xlink" width="299pt" height="226pt" viewBox="0 0 299 226"><defs><clipPath id="c"><path d="M64 9h2v169.875h-2zm0 0"/></clipPath><clipPath id="d"><path d="M118 9h2v169.875h-2zm0 0"/></clipPath><clipPath id="e"><path d="M172 9h2v169.875h-2zm0 0"/></clipPath><clipPath id="f"><path d="M226 9h3v169.875h-3zm0 0"/></clipPath><clipPath id="g"><path d="M281 9h.754v169.875H281zm0 0"/></clipPath><clipPath id="h"><path d="M37.629 149h244.125v3H37.629zm0 0"/></clipPath><clipPath id="i"><path d="M37.629 93h244.125v2H37.629zm0 0"/></clipPath><clipPath id="j"><path d="M37.629 36h244.125v3H37.629zm0 0"/></clipPath><clipPath id="k"><path d="M37.629 39h244.125v99H37.629zm0 0"/></clipPath><clipPath id="l"><path d="M37.629 23h244.125v31H37.629zm0 0"/></clipPath><clipPath id="m"><path d="M37.629 23h244.125v18H37.629zm0 0"/></clipPath><clipPath id="b"><path d="M0 0h299v226H0z"/></clipPath><filter id="a" filterUnits="objectBoundingBox" x="0%" y="0%" width="100%" height="100%"><feColorMatrix in="SourceGraphic" values="0 0 0 0 1 0 0 0 0 1 0 0 0 0 1 0 0 0 1 0"/></filter><mask id="o"><g filter="url(#a)"><path style="fill:#000;fill-opacity:.8;stroke:none" d="M0 0h299v226H0z"/></g></mask><g id="n" clip-path="url(#b)"><path style="fill-rule:nonzero;fill:#fff;fill-opacity:1;stroke-width:1;stroke-linecap:butt;stroke-linejoin:miter;stroke:#ccc;stroke-opacity:1;stroke-miterlimit:4" d="M140.634 98.666h77.77c1.334 0 2-.666 2-2V53.63c0-1.331-.666-2-2-2h-77.77c-1.334 0-2 .669-2 2v43.035c0 1.334.666 2 2 2zm0 0" transform="scale(1.25)"/></g></defs><path style="stroke:none;fill-rule:nonzero;fill:#fff;fill-opacity:1" d="M37.629 178.875h244.125V9H37.629zm0 0"/><g clip-path="url(#c)"><path style="fill:none;stroke-width:.8;stroke-linecap:square;stroke-linejoin:round;stroke:#b0b0b0;stroke-opacity:1;stroke-miterlimit:4" d="M51.803 143.1V7.2" transform="scale(1.25)"/></g><path style="fill:none;stroke-width:.8;stroke-linecap:butt;stroke-linejoin:round;stroke:#000;stroke-opacity:1;stroke-miterlimit:4" d="M0 0v3.5" transform="matrix(1.25 0 0 1.25 64.754 178.875)"/><path style="stroke:none;fill-rule:nonzero;fill:#000;fill-opacity:1" d="M63.176 196.086h4.3v1.039h-5.78v-1.04c.464-.483 1.1-1.132 1.91-1.948.808-.817 1.316-1.344 1.523-1.578.394-.446.668-.82.824-1.125.16-.309.238-.61.238-.907 0-.484-.168-.879-.511-1.183-.336-.309-.782-.461-1.328-.461-.383 0-.793.066-1.223.203a7.19 7.19 0 0 0-1.375.61v-1.247c.496-.199.96-.347 1.39-.449a5.23 5.23 0 0 1 1.184-.152c.945 0 1.7.234 2.258.707.562.472.844 1.101.844 1.89 0 .375-.07.73-.211 1.067-.14.336-.395.73-.766 1.187-.101.117-.426.457-.969 1.024a769.02 769.02 0 0 1-2.308 2.363zm0 0"/><g clip-path="url(#d)"><path style="fill:none;stroke-width:.8;stroke-linecap:square;stroke-linejoin:round;stroke:#b0b0b0;stroke-opacity:1;stroke-miterlimit:4" d="M95.203 143.1V7.2" transform="scale(1.25)"/></g><path style="fill:none;stroke-width:.8;stroke-linecap:butt;stroke-linejoin:round;stroke:#000;stroke-opacity:1;stroke-miterlimit:4" d="M0 0v3.5" transform="matrix(1.25 0 0 1.25 119.004 178.875)"/><path style="stroke:none;fill-rule:nonzero;fill:#000;fill-opacity:1" d="m119.75 189.086-3.11 4.863h3.11zm-.32-1.074h1.547v5.937h1.304v1.028h-1.304v2.148h-1.227v-2.148h-4.11v-1.192zm0 0"/><g clip-path="url(#e)"><path style="fill:none;stroke-width:.8;stroke-linecap:square;stroke-linejoin:round;stroke:#b0b0b0;stroke-opacity:1;stroke-miterlimit:4" d="M138.603 143.1V7.2" transform="scale(1.25)"/></g><path style="fill:none;stroke-width:.8;stroke-linecap:butt;stroke-linejoin:round;stroke:#000;stroke-opacity:1;stroke-miterlimit:4" d="M0 0v3.5" transform="matrix(1.25 0 0 1.25 173.254 178.875)"/><path style="stroke:none;fill-rule:nonzero;fill:#000;fill-opacity:1" d="M173.406 192.078c-.554 0-.992.188-1.32.567-.32.378-.484.894-.484 1.554 0 .656.164 1.172.484 1.555.328.379.766.57 1.32.57.551 0 .989-.191 1.313-.57.324-.383.484-.899.484-1.555 0-.66-.16-1.176-.484-1.554-.324-.38-.762-.567-1.313-.567zm2.446-3.867v1.125a4.815 4.815 0 0 0-.938-.336 3.9 3.9 0 0 0-.937-.117c-.813 0-1.438.273-1.868.824-.425.55-.672 1.379-.734 2.492.242-.355.543-.629.906-.816.36-.188.762-.281 1.196-.281.914 0 1.64.277 2.171.832.532.554.797 1.308.797 2.265 0 .938-.277 1.688-.832 2.254-.554.567-1.289.848-2.207.848-1.054 0-1.863-.403-2.422-1.211-.554-.809-.836-1.98-.836-3.512 0-1.441.344-2.59 1.028-3.445.683-.86 1.601-1.285 2.754-1.285.308 0 .62.027.937.09.313.062.64.152.985.273zm0 0"/><g clip-path="url(#f)"><path style="fill:none;stroke-width:.8;stroke-linecap:square;stroke-linejoin:round;stroke:#b0b0b0;stroke-opacity:1;stroke-miterlimit:4" d="M182.003 143.1V7.2" transform="scale(1.25)"/></g><path style="fill:none;stroke-width:.8;stroke-linecap:butt;stroke-linejoin:round;stroke:#000;stroke-opacity:1;stroke-miterlimit:4" d="M0 0v3.5" transform="matrix(1.25 0 0 1.25 227.504 178.875)"/><path style="stroke:none;fill-rule:nonzero;fill:#000;fill-opacity:1" d="M227.5 192.797c-.586 0-1.047.156-1.383.469-.336.312-.5.746-.5 1.293 0 .55.164.98.5 1.296.336.313.797.47 1.383.47s1.047-.157 1.383-.473c.34-.317.508-.747.508-1.293 0-.547-.164-.98-.5-1.293-.336-.313-.801-.47-1.391-.47zm-1.234-.524c-.528-.132-.938-.378-1.235-.738-.293-.363-.441-.808-.441-1.328 0-.727.258-1.305.777-1.727.52-.421 1.23-.632 2.133-.632.906 0 1.621.21 2.137.632.515.422.777 1 .777 1.727 0 .52-.148.965-.445 1.328-.293.36-.703.606-1.227.738.594.137 1.055.407 1.383.813.336.402.5.89.5 1.473 0 .882-.27 1.562-.809 2.035-.539.472-1.312.707-2.316.707-1.004 0-1.777-.235-2.316-.707-.54-.473-.809-1.153-.809-2.035 0-.582.168-1.07.5-1.473.336-.406.797-.676 1.39-.813zm-.45-1.949c0 .473.149.84.442 1.106.297.261.71.394 1.242.394.531 0 .945-.133 1.242-.394.301-.266.45-.633.45-1.106 0-.472-.149-.84-.45-1.105-.297-.266-.71-.395-1.242-.395-.531 0-.945.13-1.242.395-.293.265-.442.633-.442 1.105zm0 0"/><g clip-path="url(#g)"><path style="fill:none;stroke-width:.8;stroke-linecap:square;stroke-linejoin:round;stroke:#b0b0b0;stroke-opacity:1;stroke-miterlimit:4" d="M225.403 143.1V7.2" transform="scale(1.25)"/></g><path style="fill:none;stroke-width:.8;stroke-linecap:butt;stroke-linejoin:round;stroke:#000;stroke-opacity:1;stroke-miterlimit:4" d="M0 0v3.5" transform="matrix(1.25 0 0 1.25 281.754 178.875)"/><path style="stroke:none;fill-rule:nonzero;fill:#000;fill-opacity:1" d="M275.352 196.086h2.015v-6.953l-2.195.441v-1.125l2.18-.437h1.234v8.074h2.016v1.039h-5.25zm10.375-7.262c-.633 0-1.114.313-1.434.938-.316.62-.477 1.562-.477 2.816 0 1.246.16 2.184.477 2.809.32.625.8.937 1.434.937.64 0 1.117-.312 1.437-.937.32-.625.48-1.563.48-2.809 0-1.254-.16-2.195-.48-2.816-.32-.625-.797-.938-1.437-.938zm0-.976c1.023 0 1.8.402 2.34 1.21.538.81.808 1.981.808 3.52 0 1.531-.27 2.703-.809 3.512-.539.808-1.316 1.21-2.34 1.21-1.019 0-1.8-.402-2.34-1.21-.538-.809-.808-1.98-.808-3.512 0-1.539.27-2.71.809-3.52.539-.808 1.32-1.21 2.34-1.21zM147.68 210.523v.547h-5.164c.05.774.285 1.364.703 1.77.414.402.996.605 1.742.605.43 0 .848-.05 1.25-.156a5.685 5.685 0 0 0 1.21-.476v1.062c-.405.168-.82.3-1.241.39a6.17 6.17 0 0 1-1.29.133c-1.09 0-1.952-.316-2.59-.949-.636-.637-.956-1.496-.956-2.578 0-1.121.304-2.008.906-2.664.605-.656 1.422-.984 2.445-.984.922 0 1.649.293 2.184.886.535.59.8 1.395.8 2.414zm-1.121-.332c-.008-.613-.18-1.101-.516-1.468-.336-.368-.781-.551-1.332-.551-.629 0-1.129.176-1.508.531-.375.356-.59.852-.648 1.496zm4.051 3.004v3.625h-1.13v-9.433h1.13v1.035c.238-.406.535-.707.894-.902.363-.2.793-.297 1.293-.297.828 0 1.504.328 2.023.988.52.656.778 1.523.778 2.598 0 1.074-.258 1.941-.778 2.601-.52.66-1.195.988-2.023.988-.5 0-.93-.097-1.293-.296-.36-.2-.656-.5-.895-.907zm3.824-2.386c0-.825-.172-1.473-.512-1.942-.34-.472-.805-.707-1.399-.707-.597 0-1.062.235-1.402.707-.34.469-.512 1.117-.512 1.942 0 .824.172 1.472.512 1.945.34.469.805.703 1.402.703.594 0 1.059-.234 1.399-.703.34-.473.512-1.121.512-1.945zm5.676-2.637c-.602 0-1.079.234-1.43.707-.352.469-.524 1.113-.524 1.93 0 .816.172 1.46.52 1.933.347.469.824.703 1.433.703.598 0 1.07-.234 1.422-.707.348-.472.524-1.117.524-1.93 0-.808-.176-1.453-.524-1.925-.351-.473-.824-.711-1.422-.711zm0-.95c.976 0 1.742.317 2.296.954.563.633.84 1.512.84 2.633 0 1.117-.277 1.996-.84 2.636-.554.637-1.32.953-2.297.953-.984 0-1.75-.316-2.304-.953-.555-.64-.836-1.52-.836-2.636 0-1.121.281-2 .836-2.633.554-.637 1.32-.953 2.304-.953zm9.917.426v1.051a4.313 4.313 0 0 0-.957-.394 3.527 3.527 0 0 0-.965-.133c-.73 0-1.296.23-1.699.695-.402.461-.605 1.106-.605 1.942 0 .836.203 1.484.605 1.945.403.46.969.691 1.7.691.324 0 .648-.043.964-.129.32-.09.637-.218.957-.394v1.039c-.316.144-.64.254-.976.328a4.92 4.92 0 0 1-1.07.11c-1.028 0-1.848-.325-2.454-.97-.605-.648-.91-1.523-.91-2.62 0-1.114.309-1.993.918-2.63.613-.64 1.453-.956 2.52-.956.347 0 .683.035 1.011.105.332.07.649.176.961.32zm7.637 2.446v4.129h-1.125v-4.09c0-.649-.125-1.133-.379-1.453-.25-.32-.629-.48-1.133-.48-.609 0-1.086.19-1.437.577-.348.387-.524.914-.524 1.582v3.864h-1.129v-9.5h1.13v3.726c.269-.414.585-.719.949-.922.363-.203.785-.304 1.261-.304.786 0 1.38.242 1.782.726.402.485.605 1.2.605 2.145zm0 0"/><g clip-path="url(#h)"><path style="fill:none;stroke-width:.8;stroke-linecap:square;stroke-linejoin:round;stroke:#b0b0b0;stroke-opacity:1;stroke-miterlimit:4" d="M30.103 120.45h195.3" transform="scale(1.25)"/></g><path style="fill:none;stroke-width:.8;stroke-linecap:butt;stroke-linejoin:round;stroke:#000;stroke-opacity:1;stroke-miterlimit:4" d="M0 0h-3.5" transform="matrix(1.25 0 0 1.25 37.629 150.563)"/><path style="stroke:none;fill-rule:nonzero;fill:#000;fill-opacity:1" d="M12.973 147.012c-.633 0-1.114.312-1.434.937-.316.621-.476 1.563-.476 2.817 0 1.246.16 2.183.476 2.808.32.625.8.938 1.434.938.64 0 1.117-.313 1.437-.938.32-.625.48-1.562.48-2.808 0-1.254-.16-2.196-.48-2.817-.32-.625-.797-.937-1.437-.937zm0-.977c1.023 0 1.8.403 2.34 1.211.539.809.812 1.98.812 3.52 0 1.53-.273 2.703-.813 3.511-.539.809-1.316 1.211-2.34 1.211-1.019 0-1.8-.402-2.34-1.21-.538-.81-.808-1.981-.808-3.512 0-1.54.27-2.711.809-3.52.539-.809 1.32-1.21 2.34-1.21zm5.317 7.727h1.288v1.55H18.29zm7.362-6.489-3.113 4.864h3.113zm-.324-1.074h1.55v5.938h1.302v1.027h-1.301v2.149h-1.227v-2.149H21.54v-1.191zm0 0"/><g clip-path="url(#i)"><path style="fill:none;stroke-width:.8;stroke-linecap:square;stroke-linejoin:round;stroke:#b0b0b0;stroke-opacity:1;stroke-miterlimit:4" d="M30.103 75.15h195.3" transform="scale(1.25)"/></g><path style="fill:none;stroke-width:.8;stroke-linecap:butt;stroke-linejoin:round;stroke:#000;stroke-opacity:1;stroke-miterlimit:4" d="M0 0h-3.5" transform="matrix(1.25 0 0 1.25 37.629 93.938)"/><path style="stroke:none;fill-rule:nonzero;fill:#000;fill-opacity:1" d="M12.973 90.387c-.633 0-1.114.312-1.434.937-.316.621-.476 1.563-.476 2.817 0 1.246.16 2.183.476 2.808.32.625.8.938 1.434.938.64 0 1.117-.313 1.437-.938.32-.625.48-1.562.48-2.808 0-1.254-.16-2.196-.48-2.817-.32-.625-.797-.937-1.437-.937zm0-.977c1.023 0 1.8.403 2.34 1.211.539.809.812 1.98.812 3.52 0 1.53-.273 2.703-.813 3.511-.539.809-1.316 1.211-2.34 1.211-1.019 0-1.8-.402-2.34-1.21-.538-.81-.808-1.981-.808-3.512 0-1.54.27-2.711.809-3.52.539-.808 1.32-1.21 2.34-1.21zm5.317 7.727h1.288v1.55H18.29zm6.765-3.497c-.555 0-.992.188-1.317.567-.324.379-.484.898-.484 1.555 0 .656.16 1.175.484 1.554.325.383.762.57 1.317.57.55 0 .988-.187 1.312-.57.324-.379.485-.898.485-1.554 0-.657-.16-1.176-.485-1.555-.324-.379-.762-.566-1.312-.566zm2.445-3.867v1.125a4.815 4.815 0 0 0-.938-.335 3.9 3.9 0 0 0-.937-.118c-.813 0-1.434.278-1.863.825-.43.55-.676 1.378-.735 2.492a2.44 2.44 0 0 1 .903-.817 2.567 2.567 0 0 1 1.195-.28c.914 0 1.64.276 2.172.831.531.555.797 1.313.797 2.266 0 .937-.278 1.687-.832 2.254-.555.566-1.29.847-2.207.847-1.055 0-1.864-.402-2.418-1.21-.559-.81-.836-1.981-.836-3.512 0-1.442.34-2.59 1.023-3.446.684-.86 1.602-1.285 2.754-1.285.309 0 .621.031.938.09.312.063.64.152.984.273zm0 0"/><g clip-path="url(#j)"><path style="fill:none;stroke-width:.8;stroke-linecap:square;stroke-linejoin:round;stroke:#b0b0b0;stroke-opacity:1;stroke-miterlimit:4" d="M30.103 29.85h195.3" transform="scale(1.25)"/></g><path style="fill:none;stroke-width:.8;stroke-linecap:butt;stroke-linejoin:round;stroke:#000;stroke-opacity:1;stroke-miterlimit:4" d="M0 0h-3.5" transform="matrix(1.25 0 0 1.25 37.629 37.313)"/><path style="stroke:none;fill-rule:nonzero;fill:#000;fill-opacity:1" d="M12.973 33.762c-.633 0-1.114.312-1.434.937-.316.621-.476 1.563-.476 2.817 0 1.246.16 2.183.476 2.808.32.625.8.938 1.434.938.64 0 1.117-.313 1.437-.938.32-.625.48-1.562.48-2.808 0-1.254-.16-2.196-.48-2.817-.32-.625-.797-.937-1.437-.937zm0-.977c1.023 0 1.8.403 2.34 1.211.539.809.812 1.98.812 3.52 0 1.53-.273 2.703-.813 3.511-.539.809-1.316 1.211-2.34 1.211-1.019 0-1.8-.402-2.34-1.21-.538-.81-.808-1.981-.808-3.512 0-1.54.27-2.711.809-3.52.539-.809 1.32-1.21 2.34-1.21zm5.317 7.727h1.288v1.55H18.29zm6.608-2.778c-.585 0-1.046.157-1.382.47-.336.316-.5.745-.5 1.292 0 .55.164.98.5 1.297.336.312.797.469 1.382.469.586 0 1.047-.157 1.387-.473.336-.316.508-.746.508-1.293 0-.547-.168-.976-.504-1.293-.336-.312-.8-.469-1.39-.469zm-1.23-.523c-.531-.133-.941-.379-1.238-.738-.293-.364-.442-.805-.442-1.328 0-.727.258-1.301.778-1.727.52-.422 1.23-.633 2.132-.633.907 0 1.622.211 2.137.633.516.426.777 1 .777 1.727 0 .523-.148.964-.445 1.328-.293.359-.703.605-1.226.738.593.137 1.054.406 1.386.812.332.403.496.895.496 1.473 0 .887-.27 1.563-.808 2.035-.54.473-1.313.707-2.317.707-1.003 0-1.777-.234-2.316-.707-.539-.472-.809-1.148-.809-2.035 0-.578.168-1.07.5-1.473.336-.406.801-.675 1.395-.812zm-.453-1.95c0 .473.148.84.441 1.106.297.262.711.395 1.242.395.532 0 .946-.133 1.243-.395.3-.265.449-.633.449-1.105 0-.473-.149-.84-.45-1.106-.296-.261-.71-.394-1.242-.394-.53 0-.945.133-1.242.394-.293.266-.441.633-.441 1.106zm0 0"/><g clip-path="url(#k)"><path style="fill:none;stroke-width:1.5;stroke-linecap:square;stroke-linejoin:round;stroke:#1f77b4;stroke-opacity:1;stroke-miterlimit:4" d="m30.103 32.653 21.7 48.469 21.7 9.978 21.7 5.388 21.7 3.862 21.7 2.416 21.7 2.087 21.7 1.463 21.7 1.403 21.7 1.125" transform="scale(1.25)"/></g><g clip-path="url(#l)"><path style="fill:none;stroke-width:1.5;stroke-linecap:butt;stroke-linejoin:round;stroke:#bf00bf;stroke-opacity:1;stroke-dasharray:5.55,2.4;stroke-miterlimit:4" d="m30.103 42.163 21.7-14.563 21.7-3.116 21.7-1.362 21.7-.972 21.7-.95 21.7-.613 21.7-.23 21.7-.763 21.7-.128" transform="scale(1.25)"/></g><g clip-path="url(#m)"><path style="fill:none;stroke-width:1.5;stroke-linecap:butt;stroke-linejoin:round;stroke:green;stroke-opacity:1;stroke-dasharray:9.6,2.4,1.5,2.4;stroke-miterlimit:4" d="m30.103 32.003 21.7-2.947 21.7-3.578 21.7-2.81 21.7-1.968 21.7.16 21.7-.41 21.7 1.178 21.7-2.037 21.7 1.334" transform="scale(1.25)"/></g><path style="fill:none;stroke-width:.8;stroke-linecap:square;stroke-linejoin:miter;stroke:#000;stroke-opacity:1;stroke-miterlimit:4" d="M30.103 143.1V7.2m195.3 135.9V7.2m-195.3 135.9h195.3M30.103 7.2h195.3" transform="scale(1.25)"/><use xlink:href="#n" mask="url(#o)"/><path style="fill:none;stroke-width:1.5;stroke-linecap:square;stroke-linejoin:round;stroke:#1f77b4;stroke-opacity:1;stroke-miterlimit:4" d="M142.634 59.731h20" transform="scale(1.25)"/><path style="stroke:none;fill-rule:nonzero;fill:#000;fill-opacity:1" d="M215.582 70.262v1.941h2.313v.875h-2.313v3.711c0 .555.074.914.23 1.07.149.16.461.243.93.243h1.153v.937h-1.153c-.867 0-1.465-.16-1.797-.484-.328-.325-.492-.914-.492-1.766v-3.71h-.824v-.876h.824v-1.941zm7.75 2.988a1.44 1.44 0 0 0-.41-.156 1.938 1.938 0 0 0-.492-.055c-.633 0-1.121.207-1.461.617-.34.414-.512 1.008-.512 1.781v3.602h-1.129v-6.836h1.129v1.063c.238-.414.547-.723.922-.922.379-.203.84-.305 1.383-.305.074 0 .16.004.254.016.093.007.199.023.312.047zm4.285 2.352c-.906 0-1.535.105-1.887.312-.347.207-.523.563-.523 1.063 0 .398.129.714.395.949.261.234.617.347 1.07.347.621 0 1.121-.218 1.5-.66.375-.441.562-1.027.562-1.761v-.25zm2.242-.461v3.898h-1.125V78a2.454 2.454 0 0 1-.957.922c-.382.195-.851.297-1.406.297-.7 0-1.254-.2-1.668-.594-.414-.39-.621-.918-.621-1.578 0-.766.258-1.344.773-1.734.516-.391 1.282-.586 2.305-.586h1.574v-.114c0-.515-.168-.918-.507-1.199-.34-.281-.817-.422-1.434-.422-.39 0-.77.047-1.14.14a4.461 4.461 0 0 0-1.067.423v-1.04a7.24 7.24 0 0 1 1.195-.359 5.685 5.685 0 0 1 1.13-.117c.987 0 1.726.258 2.214.77.488.511.734 1.289.734 2.332zm2.313-2.938h1.121v6.836h-1.121zm0-2.664h1.121v1.426h-1.121zm9.156 5.375v4.125h-1.125v-4.09c0-.648-.125-1.129-.379-1.449-.25-.324-.629-.484-1.133-.484-.609 0-1.086.195-1.437.578-.348.386-.524.914-.524 1.582v3.863h-1.128v-6.836h1.128v1.063c.27-.41.586-.72.95-.922a2.545 2.545 0 0 1 1.261-.305c.786 0 1.38.242 1.782.727.402.488.605 1.203.605 2.148zm6.212-5.374h1.124v9.5h-1.125zm6.12 3.452c-.601 0-1.078.235-1.426.703-.351.47-.527 1.114-.527 1.93 0 .82.176 1.465.523 1.934.348.468.825.707 1.43.707.602 0 1.074-.239 1.422-.711.352-.47.527-1.114.527-1.93 0-.809-.175-1.45-.527-1.922-.348-.476-.82-.71-1.422-.71zm0-.953c.977 0 1.746.316 2.3.953.56.633.84 1.512.84 2.633s-.28 2-.84 2.637c-.554.636-1.323.957-2.3.957-.98 0-1.746-.32-2.305-.957-.554-.637-.832-1.516-.832-2.637s.278-2 .832-2.633c.56-.637 1.325-.953 2.305-.953zm9.356.367v1.063a4.274 4.274 0 0 0-.985-.367 4.546 4.546 0 0 0-1.062-.125c-.559 0-.977.085-1.258.257-.277.172-.414.426-.414.77a.72.72 0 0 0 .297.613c.199.149.601.29 1.203.422l.383.086c.797.172 1.367.414 1.703.727.336.308.5.742.5 1.3 0 .637-.25 1.137-.75 1.512-.504.367-1.195.555-2.074.555a6.61 6.61 0 0 1-1.145-.11 9.552 9.552 0 0 1-1.254-.32v-1.16c.414.215.824.379 1.227.488.402.106.8.156 1.199.156.527 0 .934-.09 1.219-.27a.864.864 0 0 0 .425-.765c0-.304-.101-.539-.308-.699-.203-.164-.656-.32-1.352-.473l-.39-.09c-.696-.148-1.2-.37-1.508-.675-.309-.305-.461-.719-.461-1.246 0-.645.226-1.14.68-1.493.457-.347 1.105-.523 1.945-.523.414 0 .8.031 1.168.094.367.058.707.148 1.012.273zm6.515 0v1.063a4.372 4.372 0 0 0-.988-.367 4.546 4.546 0 0 0-1.063-.125c-.558 0-.976.085-1.253.257-.282.172-.418.426-.418.77a.72.72 0 0 0 .296.613c.2.149.602.29 1.204.422l.386.086c.797.172 1.364.414 1.7.727.335.308.503.742.503 1.3 0 .637-.253 1.137-.753 1.512-.504.367-1.196.555-2.075.555-.363 0-.746-.04-1.144-.11a9.875 9.875 0 0 1-1.254-.32v-1.16c.418.215.824.379 1.226.488.403.106.801.156 1.2.156.527 0 .933-.09 1.218-.27a.856.856 0 0 0 .426-.765c0-.304-.101-.539-.308-.699-.204-.164-.653-.32-1.352-.473l-.39-.09c-.696-.148-1.196-.37-1.508-.675-.309-.305-.461-.719-.461-1.246 0-.645.226-1.14.683-1.493.453-.347 1.102-.523 1.942-.523.414 0 .804.031 1.168.094.367.058.707.148 1.015.273zm0 0"/><path style="fill:none;stroke-width:1.5;stroke-linecap:butt;stroke-linejoin:round;stroke:#bf00bf;stroke-opacity:1;stroke-dasharray:5.55,2.4;stroke-miterlimit:4" d="M142.634 74.41h20" transform="scale(1.25)"/><path style="stroke:none;fill-rule:nonzero;fill:#000;fill-opacity:1" d="M215.582 88.61v1.94h2.313v.872h-2.313v3.71c0 .56.074.919.23 1.079.149.156.461.234.93.234h1.153v.942h-1.153c-.867 0-1.465-.16-1.797-.485-.328-.324-.492-.914-.492-1.77v-3.71h-.824v-.871h.824v-1.942zm7.75 2.992a1.455 1.455 0 0 0-.41-.165 2.382 2.382 0 0 0-.492-.05c-.633 0-1.121.207-1.461.62-.34.411-.512 1.005-.512 1.778v3.602h-1.129V90.55h1.129v1.062a2.36 2.36 0 0 1 .922-.925c.379-.2.84-.301 1.383-.301a3.699 3.699 0 0 1 .566.059zm4.285 2.351c-.906 0-1.535.102-1.887.309-.347.207-.523.562-.523 1.062 0 .399.129.715.395.95.261.234.617.351 1.07.351.621 0 1.121-.223 1.5-.664.375-.441.562-1.027.562-1.758v-.25zm2.242-.469v3.903h-1.125v-1.035a2.405 2.405 0 0 1-.957.914c-.382.199-.851.296-1.406.296-.7 0-1.254-.195-1.668-.585-.414-.395-.621-.922-.621-1.579 0-.77.258-1.351.773-1.742.516-.39 1.282-.586 2.305-.586h1.574v-.11c0-.515-.168-.917-.507-1.198-.34-.282-.817-.426-1.434-.426-.39 0-.77.047-1.14.14a4.461 4.461 0 0 0-1.067.422V90.86a7.58 7.58 0 0 1 1.195-.351 5.42 5.42 0 0 1 1.13-.121c.987 0 1.726.258 2.214.77.488.511.734 1.288.734 2.327zm2.313-2.934h1.121v6.837h-1.121zm0-2.66h1.121v1.422h-1.121zm9.156 5.368v4.129h-1.125v-4.09c0-.649-.125-1.133-.379-1.453-.25-.32-.629-.48-1.133-.48-.609 0-1.086.19-1.437.581-.348.383-.524.91-.524 1.578v3.864h-1.128V90.55h1.128v1.062c.27-.41.586-.718.95-.922.363-.203.785-.304 1.261-.304.786 0 1.38.242 1.782.73.402.485.605 1.2.605 2.14zm9.32.695c-.91 0-1.539.102-1.886.309-.352.207-.528.562-.528 1.062 0 .399.133.715.395.95.262.234.621.351 1.07.351.625 0 1.125-.223 1.5-.664.375-.441.567-1.027.567-1.758v-.25zm2.239-.469v3.903h-1.121v-1.035c-.258.414-.578.718-.961.914-.383.199-.852.296-1.403.296-.699 0-1.257-.195-1.672-.585-.414-.395-.617-.922-.617-1.579 0-.77.254-1.351.77-1.742.515-.39 1.285-.586 2.304-.586h1.579v-.11c0-.515-.172-.917-.512-1.198-.34-.282-.816-.426-1.43-.426-.39 0-.773.047-1.144.14a4.461 4.461 0 0 0-1.067.422V90.86a7.58 7.58 0 0 1 1.196-.351 5.42 5.42 0 0 1 1.129-.121c.988 0 1.73.258 2.218.77.489.511.73 1.288.73 2.327zm7.234-2.671v1.05a4.313 4.313 0 0 0-.957-.394 3.707 3.707 0 0 0-.965-.133c-.73 0-1.297.234-1.699.695-.402.461-.605 1.11-.605 1.946 0 .832.203 1.48.605 1.945.402.46.969.687 1.7.687.323 0 .644-.043.964-.129.32-.085.637-.218.957-.394v1.039a4.81 4.81 0 0 1-.976.328c-.336.074-.692.11-1.07.11-1.032 0-1.848-.32-2.454-.97-.605-.648-.91-1.519-.91-2.616 0-1.118.305-1.993.918-2.633.613-.637 1.453-.957 2.52-.957.343 0 .683.035 1.011.105.328.07.649.18.961.32zm6.871 0v1.05a4.238 4.238 0 0 0-.957-.394 3.684 3.684 0 0 0-.965-.133c-.73 0-1.297.234-1.699.695-.402.461-.605 1.11-.605 1.946 0 .832.203 1.48.605 1.945.402.46.969.687 1.7.687.324 0 .648-.043.964-.129a4.2 4.2 0 0 0 .957-.394v1.039a4.73 4.73 0 0 1-.976.328 4.92 4.92 0 0 1-1.07.11c-1.028 0-1.848-.32-2.454-.97-.605-.648-.91-1.519-.91-2.616 0-1.118.309-1.993.918-2.633.613-.637 1.453-.957 2.52-.957a4.628 4.628 0 0 1 1.973.426zm0 0"/><path style="fill:none;stroke-width:1.5;stroke-linecap:butt;stroke-linejoin:round;stroke:green;stroke-opacity:1;stroke-dasharray:9.6,2.4,1.5,2.4;stroke-miterlimit:4" d="M142.634 89.088h20" transform="scale(1.25)"/><path style="stroke:none;fill-rule:nonzero;fill:#000;fill-opacity:1" d="M215.582 106.957v1.941h2.313v.875h-2.313v3.711c0 .555.074.914.23 1.07.149.16.461.243.93.243h1.153v.937h-1.153c-.867 0-1.465-.16-1.797-.484-.328-.324-.492-.914-.492-1.766v-3.71h-.824v-.876h.824v-1.941zm9.637 5.078v.55h-5.164c.05.774.285 1.36.699 1.767.418.406 1 .609 1.742.609.434 0 .852-.055 1.254-.16a5.577 5.577 0 0 0 1.207-.477v1.063c-.402.172-.816.3-1.238.39a6.2 6.2 0 0 1-1.29.137c-1.09 0-1.952-.32-2.59-.953-.636-.637-.956-1.496-.956-2.578 0-1.117.304-2.008.906-2.664.606-.656 1.422-.985 2.445-.985.922 0 1.649.297 2.184.891.535.59.8 1.395.8 2.41zm-1.121-.332c-.008-.61-.18-1.101-.516-1.469-.336-.367-.781-.546-1.336-.546-.625 0-1.125.175-1.504.53-.375.352-.594.852-.648 1.493zm7.32-2.601v1.062a4.304 4.304 0 0 0-.988-.367 4.521 4.521 0 0 0-1.063-.125c-.554 0-.972.086-1.254.258-.277.172-.418.425-.418.77 0 .26.102.464.301.612.2.149.602.29 1.203.422l.383.086c.797.172 1.363.414 1.7.727.335.308.503.742.503 1.3 0 .637-.25 1.137-.754 1.512-.5.368-1.191.555-2.07.555-.367 0-.746-.039-1.145-.11a9.552 9.552 0 0 1-1.254-.32v-1.16c.415.215.825.38 1.227.489.402.105.8.156 1.195.156.532 0 .938-.09 1.22-.27a.86.86 0 0 0 .429-.765c0-.305-.102-.54-.309-.7-.203-.164-.656-.32-1.351-.472l-.391-.09c-.695-.149-1.2-.371-1.508-.676-.308-.305-.465-.719-.465-1.246 0-.645.23-1.14.684-1.492.457-.348 1.105-.524 1.941-.524.414 0 .805.032 1.172.094.367.059.703.149 1.012.274zm3.27-2.145v1.941H237v.875h-2.313v3.711c0 .555.075.914.227 1.07.152.16.465.243.934.243H237v.937h-1.152c-.868 0-1.47-.16-1.797-.484-.328-.324-.492-.914-.492-1.766v-3.71h-.825v-.876h.825v-1.941zm10.867 5.34c-.907 0-1.535.105-1.883.312-.352.207-.527.563-.527 1.063 0 .398.132.715.394.95.262.233.621.347 1.07.347.625 0 1.125-.219 1.5-.66.375-.442.563-1.028.563-1.762v-.25zm2.242-.461v3.898h-1.125v-1.039a2.454 2.454 0 0 1-.957.922c-.383.195-.852.297-1.403.297-.703 0-1.257-.2-1.671-.594-.414-.39-.618-.918-.618-1.578 0-.765.254-1.344.77-1.734.516-.39 1.285-.586 2.305-.586h1.574v-.113c0-.516-.168-.918-.508-1.2-.34-.28-.816-.421-1.43-.421-.39 0-.773.046-1.144.14a4.461 4.461 0 0 0-1.067.422v-1.04a7.24 7.24 0 0 1 1.196-.358 5.685 5.685 0 0 1 1.129-.118c.988 0 1.73.258 2.214.77.493.512.735 1.289.735 2.332zm7.23-2.676v1.05a4.211 4.211 0 0 0-.953-.394 3.709 3.709 0 0 0-.969-.129c-.726 0-1.292.231-1.699.692-.402.46-.601 1.11-.601 1.941 0 .836.199 1.485.601 1.946.406.46.973.695 1.7.695.328 0 .648-.047.968-.133.32-.086.637-.219.953-.394v1.039a4.753 4.753 0 0 1-2.043.441c-1.03 0-1.847-.324-2.457-.973-.605-.648-.906-1.52-.906-2.62 0-1.114.305-1.989.918-2.626.613-.64 1.453-.96 2.52-.96.343 0 .683.035 1.011.109.328.07.649.176.957.316zm6.875 0v1.05a4.313 4.313 0 0 0-.957-.394 3.68 3.68 0 0 0-.965-.129c-.73 0-1.296.231-1.699.692-.402.46-.605 1.11-.605 1.941 0 .836.203 1.485.605 1.946.403.46.969.695 1.7.695.324 0 .648-.047.964-.133.32-.086.637-.219.957-.394v1.039a4.868 4.868 0 0 1-2.047.441c-1.027 0-1.847-.324-2.453-.973-.605-.648-.91-1.52-.91-2.62 0-1.114.309-1.989.918-2.626.613-.64 1.453-.96 2.52-.96.347 0 .683.035 1.011.109.332.07.649.176.961.316zm0 0"/></svg>